HIERARCHY
ROOT Hips
{
    OFFSET 0.000000 0.000000 0.000000
    CHANNELS 6 Xposition Yposition Zposition Zrotation Xrotation Yrotation
    JOINT Spine
    {
        OFFSET -0.000000 14.517291 0.000000
        CHANNELS 3 Zrotation Xrotation Yrotation
        JOINT Spine1
        {
            OFFSET -0.000000 37.558300 0.000000
            CHANNELS 3 Zrotation Xrotation Yrotation
            JOINT Neck
            {
                OFFSET -0.000000 37.404057 3.400369
                CHANNELS 3 Zrotation Xrotation Yrotation
                JOINT Head
                {
                    OFFSET -0.000000 24.785618 -3.540803
                    CHANNELS 3 Zrotation Xrotation Yrotation
                    End Site
                    {
                        OFFSET -0.000000 35.408028 0.000000
                    }
                }
            }
            JOINT LeftShoulder
            {
                OFFSET 6.992933 33.973492 -0.192664
                CHANNELS 3 Zrotation Xrotation Yrotation
                JOINT LeftArm
                {
                    OFFSET 21.527611 0.000000 0.000000
                    CHANNELS 3 Zrotation Xrotation Yrotation
                    JOINT LeftForeArm
                    {
                        OFFSET 56.353916 0.000000 0.000000
                        CHANNELS 3 Zrotation Xrotation Yrotation
                        JOINT LeftHand
                        {
                            OFFSET 47.774071 0.000000 0.000000
                            CHANNELS 3 Zrotation Xrotation Yrotation
                            End Site
                            {
                                OFFSET 26.556021 0.000000 0.000000
                            }
                        }
                    }
                }
            }
            JOINT RightShoulder
            {
                OFFSET -7.065357 33.973492 -0.192664
                CHANNELS 3 Zrotation Xrotation Yrotation
                JOINT RightArm
                {
                    OFFSET -21.527611 0.000000 0.000000
                    CHANNELS 3 Zrotation Xrotation Yrotation
                    JOINT RightForeArm
                    {
                        OFFSET -56.353916 0.000000 0.000000
                        CHANNELS 3 Zrotation Xrotation Yrotation
                        JOINT RightHand
                        {
                            OFFSET -47.774071 0.000000 0.000000
                            CHANNELS 3 Zrotation Xrotation Yrotation
                            End Site
                            {
                                OFFSET -26.556021 0.000000 0.000000
                            }
                        }
                    }
                }
            }
        }
    }
    JOINT LeftUpLeg
    {
        OFFSET 17.704014 0.000000 0.000000
        CHANNELS 3 Zrotation Xrotation Yrotation
        JOINT LeftLeg
        {
            OFFSET -0.000000 -81.181816 0.000000
            CHANNELS 3 Zrotation Xrotation Yrotation
            JOINT LeftFoot
            {
                OFFSET -0.000000 -62.821102 0.000000
                CHANNELS 3 Zrotation Xrotation Yrotation
                JOINT LeftToeBase
                {
                    OFFSET -0.000000 -11.507608 26.556021
                    CHANNELS 3 Zrotation Xrotation Yrotation
                    End Site
                    {
                        OFFSET -0.000000 0.000000 7.081605
                    }
                }
            }
        }
    }
    JOINT RightUpLeg
    {
        OFFSET -17.704014 0.000000 0.000000
        CHANNELS 3 Zrotation Xrotation Yrotation
        JOINT RightLeg
        {
            OFFSET -0.000000 -81.181816 0.000000
            CHANNELS 3 Zrotation Xrotation Yrotation
            JOINT RightFoot
            {
                OFFSET -0.000000 -62.821102 0.000000
                CHANNELS 3 Zrotation Xrotation Yrotation
                JOINT RightToeBase
                {
                    OFFSET -0.000000 -11.507608 26.556021
                    CHANNELS 3 Zrotation Xrotation Yrotation
                    End Site
                    {
                        OFFSET -0.000000 0.000000 7.081605
                    }
                }
            }
        }
    }
}
MOTION
Frames:    12
Frame Time:    0.008333
31.843287    159.218979    -102.728165    0.341706    -1.487273    25.791777    -2.735822    -2.867530    -4.871943    -6.044855    4.342809    -1.367238    11.165994    -6.093391    -0.190627    6.294662    4.312364    -1.801887    13.410506    1.904030    -20.988302    -31.736431    8.284225    -75.744980    7.515749    -57.393467    -97.730804    -11.685859    -50.916561    -23.651070    -6.505207    3.001915    -6.684110    17.026201    24.929497    14.371018    16.080011    14.264668    3.988090    3.755923    14.509056    24.505617    8.863332    1.988626    -0.419393    -10.586742    22.620857    -17.287922    6.292080    -21.934765    44.777603    0.000000    0.000000    0.000000    -14.774595    -26.415148    -7.952035    11.780984    28.120846    -14.061226    2.558622    12.049101    -12.639777    0.000000    0.000000    0.000000    
31.795952    159.197632    -102.746918    0.355580    -1.475437    25.770058    -2.684370    -2.875516    -4.774934    -6.057353    4.328224    -1.335616    10.992905    -5.984828    -0.276339    6.446898    4.137200    -1.819281    13.425273    1.625993    -20.769899    -31.211842    8.051837    -74.674156    7.547643    -56.860878    -97.477509    -11.547497    -50.335178    -23.330246    -6.592611    3.056708    -6.702318    17.135809    24.849257    14.278588    16.189627    14.304179    3.983512    3.709549    14.535024    24.487101    8.863307    1.957193    -0.415291    -10.607328    22.658234    -17.289555    6.320035    -21.947027    44.801437    0.000000    0.000000    0.000000    -14.777067    -26.446150    -7.948103    11.788033    28.136955    -14.062092    2.534472    12.024417    -12.613939    0.000000    0.000000    0.000000    
31.747454    159.177261    -102.767387    0.369740    -1.461655    25.748310    -2.628807    -2.892484    -4.676806    -6.091241    4.329954    -1.301970    10.831954    -5.856927    -0.371805    6.613883    3.931081    -1.843969    13.473104    1.354653    -20.571568    -30.608282    7.846903    -73.623077    7.183673    -56.497929    -97.584854    -11.376850    -50.211006    -23.063101    -6.656963    3.110453    -6.741900    17.238417    24.831463    14.218934    16.228933    14.301373    3.985518    3.735369    14.534314    24.435863    8.862700    1.916676    -0.411432    -10.635616    22.713133    -17.267809    6.350083    -21.950840    44.807606    0.000000    0.000000    0.000000    -14.781897    -26.483688    -7.945192    11.789670    28.163181    -14.053355    2.527642    12.000856    -12.612012    0.000000    0.000000    0.000000    
31.699148    159.157303    -102.788528    0.379595    -1.449792    25.728430    -2.583820    -2.903230    -4.579248    -6.093791    4.324182    -1.269999    10.663549    -5.748967    -0.471259    6.757271    3.768522    -1.878155    13.515190    1.039707    -20.407803    -31.448389    7.147390    -72.260597    5.137222    -54.415916    -99.188507    -10.844262    -49.350601    -22.589628    -6.751503    3.136186    -6.764594    17.367395    24.831312    14.120665    16.263742    14.304875    4.001869    3.726515    14.530127    24.363554    8.866984    1.879999    -0.412794    -10.658040    22.758343    -17.293550    6.389008    -21.972281    44.866741    0.000000    0.000000    0.000000    -14.784498    -26.515165    -7.945039    11.800119    28.174419    -14.064494    2.504111    11.984624    -12.579395    0.000000    0.000000    0.000000    
31.645864    159.140045    -102.810493    0.381315    -1.438383    25.711052    -2.545248    -2.914056    -4.494608    -6.071042    4.315176    -1.243493    10.490495    -5.631312    -0.546272    6.898255    3.595643    -1.884611    13.544072    0.756055    -20.219328    -30.194946    7.271903    -71.311859    5.468800    -54.922501    -98.786919    -10.660104    -49.730846    -22.396080    -6.851851    3.165657    -6.781121    17.511688    24.887335    14.036925    16.207237    14.284515    4.007926    3.763852    14.518375    24.353313    8.881449    1.836866    -0.398259    -10.679151    22.806568    -17.295927    6.416923    -21.975639    44.877712    0.000000    0.000000    0.000000    -14.773304    -26.550112    -7.948856    11.797564    28.187780    -14.051996    2.491462    11.969278    -12.577671    0.000000    0.000000    0.000000    
31.595018    159.122955    -102.830521    0.383435    -1.423046    25.694586    -2.507957    -2.923106    -4.412056    -6.065042    4.292262    -1.217741    10.326559    -5.522127    -0.622036    7.051678    3.457703    -1.895115    13.592617    0.487333    -20.062748    -29.452345    7.278878    -70.310745    5.470931    -54.971310    -98.746437    -10.604459    -49.807796    -22.178246    -6.926044    3.177109    -6.793992    17.615820    24.900824    13.944327    16.222784    14.304394    4.022382    3.774107    14.537186    24.333330    8.900177    1.767195    -0.386990    -10.735080    22.867878    -16.920853    6.311368    -21.991211    44.540485    0.000000    0.000000    0.000000    -14.771081    -26.582132    -7.935802    11.815528    28.188688    -14.065989    2.467097    11.950520    -12.557142    0.000000    0.000000    0.000000    
31.546059    159.109421    -102.851555    0.382800    -1.412378    25.677771    -2.453603    -2.933132    -4.334640    -6.076106    4.280150    -1.192660    10.211233    -5.444577    -0.684283    7.135588    3.355257    -1.914145    13.633770    0.173027    -19.902452    -28.768599    7.217208    -69.333443    5.330620    -54.906578    -98.795036    -10.389332    -49.884621    -21.854393    -6.985942    3.225153    -6.826961    17.694998    24.864107    13.914425    16.257376    14.314881    4.012632    3.747995    14.543144    24.356756    8.914033    1.730016    -0.370262    -10.750349    22.906000    -16.911100    6.318616    -22.007532    44.540516    0.000000    0.000000    0.000000    -14.761473    -26.609056    -7.923750    11.822772    28.185440    -14.073397    2.434669    11.946153    -12.517884    0.000000    0.000000    0.000000    
31.497007    159.096985    -102.872360    0.380281    -1.397972    25.666050    -2.424449    -2.932598    -4.266753    -6.033413    4.244293    -1.173849    10.058387    -5.363813    -0.742605    7.228712    3.269768    -1.921382    13.657500    -0.043362    -19.724905    -28.314199    6.925300    -68.438705    4.871962    -54.539280    -99.059975    -10.254216    -49.832176    -21.667513    -7.082870    3.259909    -6.850904    17.792727    24.833525    13.864828    16.282166    14.317258    4.029992    3.748080    14.541320    24.328915    8.927034    1.692143    -0.349517    -10.759738    22.933867    -16.911896    6.342319    -22.006388    44.539772    0.000000    0.000000    0.000000    -14.752605    -26.637106    -7.935688    11.818522    28.179291    -14.055517    2.425762    11.950831    -12.515237    0.000000    0.000000    0.000000    
31.451380    159.089859    -102.889931    0.381755    -1.390374    25.648251    -2.402409    -2.928858    -4.207562    -5.990269    4.218352    -1.157342    9.939033    -5.298309    -0.784387    7.291923    3.198458    -1.923781    13.682240    -0.280463    -19.546360    -27.763548    6.742678    -67.532440    4.685930    -54.342712    -99.167847    -10.283838    -49.745422    -21.660011    -7.162344    3.297458    -6.861078    17.875721    24.748072    13.823862    16.329042    14.340515    4.027606    3.689299    14.550630    24.318777    8.938348    1.671366    -0.339385    -10.776737    22.949303    -16.881462    6.335618    -22.013163    44.525742    0.000000    0.000000    0.000000    -14.745168    -26.653578    -7.920433    11.840148    28.163670    -14.061028    2.406594    11.943809    -12.518555    0.000000    0.000000    0.000000    
31.409010    159.084869    -102.903770    0.387159    -1.385014    25.638189    -2.381761    -2.926641    -4.155706    -5.963741    4.204342    -1.142031    9.865288    -5.241487    -0.829928    7.314144    3.143246    -1.945704    13.720820    -0.547405    -19.364227    -27.727999    6.201794    -66.617493    3.995893    -53.418182    -99.634193    -10.218866    -49.242027    -21.584749    -7.204737    3.314756    -6.894903    17.921299    24.746847    13.807668    16.324202    14.333144    4.051103    3.637134    14.528789    24.303198    8.940790    1.661097    -0.311871    -10.771390    22.941454    -16.857502    6.335442    -21.995422    44.493774    0.000000    0.000000    0.000000    -14.739482    -26.658869    -7.946550    11.833187    28.146215    -14.035137    2.382444    11.947523    -12.509909    0.000000    0.000000    0.000000    
31.366657    159.085129    -102.920578    0.387200    -1.377643    25.617996    -2.355568    -2.917290    -4.101783    -5.934233    4.165658    -1.127464    9.783410    -5.202053    -0.859190    7.337689    3.123022    -1.952640    13.755718    -0.710362    -19.156826    -27.451244    5.858713    -65.730232    3.637870    -52.900623    -99.933304    -10.589789    -48.877605    -21.831305    -7.253987    3.338881    -6.916258    17.981356    24.733824    13.792784    16.319487    14.318930    4.053028    3.598125    14.506526    24.308996    8.948914    1.647144    -0.301053    -10.774286    22.944433    -16.861204    6.323175    -21.998583    44.498600    0.000000    0.000000    0.000000    -14.725127    -26.672047    -7.955101    11.823455    28.125977    -14.013648    2.359083    11.963929    -12.487513    0.000000    0.000000    0.000000    
31.320238    159.086777    -102.934311    0.382577    -1.365917    25.602091    -2.331842    -2.920989    -4.050008    -5.886765    4.134342    -1.113828    9.607718    -5.165403    -0.905074    7.474734    3.115995    -1.946450    13.738868    -0.898260    -18.991083    -27.299006    5.475875    -64.762680    3.283942    -52.213333    -100.280067    -10.954856    -48.325943    -22.137960    -7.337252    3.355820    -6.930120    18.068594    24.681955    13.765629    16.343376    14.328536    4.052884    3.567966    14.508077    24.279091    8.958806    1.631618    -0.288677    -10.773682    22.931414    -16.854723    6.310201    -21.990034    44.493969    0.000000    0.000000    0.000000    -14.710731    -26.689363    -7.949245    11.829144    28.100695    -14.017237    2.358933    11.978491    -12.482126    0.000000    0.000000    0.000000    
